<svg id="instagram" xmlns="http://www.w3.org/2000/svg" width="44" height="44" viewBox="0 0 44 44">
  <g id="Elipse_4" data-name="Elipse 4" fill="none" stroke="#c4c4c4" stroke-width="1">
    <circle cx="22" cy="22" r="22" stroke="none"/>
    <circle cx="22" cy="22" r="21.5" fill="none"/>
  </g>
  <path id="Icon_awesome-instagram" data-name="Icon awesome-instagram" d="M13.938,9.028a7.147,7.147,0,1,0,7.147,7.147A7.135,7.135,0,0,0,13.938,9.028Zm0,11.793a4.646,4.646,0,1,1,4.646-4.646,4.655,4.655,0,0,1-4.646,4.646ZM23.044,8.736a1.667,1.667,0,1,1-1.667-1.667A1.663,1.663,0,0,1,23.044,8.736Zm4.733,1.692a8.249,8.249,0,0,0-2.252-5.841,8.3,8.3,0,0,0-5.841-2.252c-2.3-.131-9.2-.131-11.5,0A8.292,8.292,0,0,0,2.344,4.581,8.276,8.276,0,0,0,.093,10.422c-.131,2.3-.131,9.2,0,11.5a8.249,8.249,0,0,0,2.252,5.841,8.314,8.314,0,0,0,5.841,2.252c2.3.131,9.2.131,11.5,0a8.249,8.249,0,0,0,5.841-2.252,8.3,8.3,0,0,0,2.252-5.841c.131-2.3.131-9.193,0-11.494ZM24.8,24.392a4.7,4.7,0,0,1-2.65,2.65c-1.835.728-6.189.56-8.217.56s-6.388.162-8.217-.56a4.7,4.7,0,0,1-2.65-2.65c-.728-1.835-.56-6.189-.56-8.217s-.162-6.388.56-8.217a4.7,4.7,0,0,1,2.65-2.65c1.835-.728,6.189-.56,8.217-.56s6.388-.162,8.217.56a4.7,4.7,0,0,1,2.65,2.65c.728,1.835.56,6.189.56,8.217S25.532,22.563,24.8,24.392Z" transform="translate(8.557 6.007)" fill="#c4c4c4"/>
</svg>
