<svg id="linkedin" xmlns="http://www.w3.org/2000/svg" width="44" height="44" viewBox="0 0 44 44">
  <g id="Elipse_6" data-name="Elipse 6" fill="none" stroke="#c4c4c4" stroke-width="1">
    <circle cx="22" cy="22" r="22" stroke="none"/>
    <circle cx="22" cy="22" r="21.5" fill="none"/>
  </g>
  <path id="Icon_awesome-linkedin-in" data-name="Icon awesome-linkedin-in" d="M5.862,26.188H.433V8.7H5.862ZM3.144,6.319A3.159,3.159,0,1,1,6.289,3.145,3.171,3.171,0,0,1,3.144,6.319ZM26.182,26.188H20.765V17.677c0-2.028-.041-4.63-2.823-4.63-2.823,0-3.255,2.2-3.255,4.484v8.657H9.263V8.7H14.47v2.385h.076a5.7,5.7,0,0,1,5.137-2.823c5.495,0,6.5,3.618,6.5,8.318v9.6Z" transform="translate(8.997 9.244)" fill="#c4c4c4"/>
</svg>
