<svg id="twitter" xmlns="http://www.w3.org/2000/svg" width="44" height="44" viewBox="0 0 44 44">
  <g id="Elipse_5" data-name="Elipse 5" fill="none" stroke="#c4c4c4" stroke-width="1">
    <circle cx="22" cy="22" r="22" stroke="none"/>
    <circle cx="22" cy="22" r="21.5" fill="none"/>
  </g>
  <path id="Icon_awesome-twitter" data-name="Icon awesome-twitter" d="M27.018,9.476c.019.267.019.535.019.8,0,8.159-6.21,17.56-17.56,17.56A17.441,17.441,0,0,1,0,25.068a12.768,12.768,0,0,0,1.49.076,12.36,12.36,0,0,0,7.662-2.637,6.183,6.183,0,0,1-5.771-4.28,7.783,7.783,0,0,0,1.166.1,6.527,6.527,0,0,0,1.624-.21,6.173,6.173,0,0,1-4.949-6.057v-.076a6.216,6.216,0,0,0,2.79.783A6.181,6.181,0,0,1,2.1,4.508a17.543,17.543,0,0,0,12.726,6.458,6.967,6.967,0,0,1-.153-1.414A6.178,6.178,0,0,1,25.356,5.33a12.151,12.151,0,0,0,3.917-1.49,6.155,6.155,0,0,1-2.713,3.4,12.373,12.373,0,0,0,3.554-.955,13.267,13.267,0,0,1-3.1,3.191Z" transform="translate(7.2 6.281)" fill="#c4c4c4"/>
</svg>
